# xmcd
#
# Track frame offsets:
#	150
#	20256
#	30419
#	46071
#	57995
#	76264
#	89650
#	100958
#	123269
#	152423
#	165307
#	175747
#	189882
#	219925
#	246297
#	264069
#	280877
#	301254
#
# Disc length: 4282 seconds
#
# Revision: 1
# Processed by: cddbd v1.5.1PL0 Copyright (c) Steve Scherf et al.
# Submitted via: CDmax 2.0
#
DISCID=d210b812
DTITLE=Various Artist - Red White and Blues - Disc Blue
DYEAR=2005
DGENRE=Blues
TTITLE0=Mississippi Fred McDowell - Good Morning Little Schoolgirl
TTITLE1=Floyd Dixon - Wind Blues
TTITLE2=9 Below Zero - Goin` down
TTITLE3=Lightning Hopkins - CC Rider
TTITLE4=Groundhogs - Mistreated
TTITLE5=John Lee Hooker - Come Back Baby
TTITLE6=Arthur `Big Roy´ Crudup - My Baby Left Me
TTITLE7=George Thorogood And The Destroyers
TTITLE8=Dr. Feelgood - Shotgun Blues
TTITLE9=Son House - I Want To Go Home On The Morning Train
TTITLE10=Canned Heat - Bullfrog Blues
TTITLE11=Jimmy Rogers - That´s All Right
TTITLE12=Otis Rush - Old Love
TTITLE13=Junior Wells - Satisfaction
TTITLE14=Snowy White - When You Broke Your Promise
TTITLE15=Honeyboy Edwards and James Cotton - Crossroads
TTITLE16=Taj Mahal - It Takes A Lot To Laugh...
TTITLE17=Perkins, Hammond and Margolin - Too Bad
EXTD=
EXTT0=
EXTT1=
EXTT2=
EXTT3=
EXTT4=
EXTT5=
EXTT6=
EXTT7=
EXTT8=
EXTT9=
EXTT10=
EXTT11=
EXTT12=
EXTT13=
EXTT14=
EXTT15=
EXTT16=
EXTT17=
PLAYORDER=
